<svg width="28" height="27" viewBox="0 0 28 27" fill="none" xmlns="http://www.w3.org/2000/svg">
<g clip-path="url(#clip0_2310_1304)">
<path d="M27.7271 13.811C27.7271 12.8933 27.6499 11.9707 27.4853 11.0679H14.28V16.2665H21.8421C21.5283 17.9431 20.52 19.4263 19.0436 20.3688V23.7419H23.5551C26.2044 21.3907 27.7271 17.9183 27.7271 13.811Z" fill="#4285F4"/>
<path d="M14.28 27.0009C18.0559 27.0009 21.2402 25.8054 23.5602 23.7418L19.0487 20.3687C17.7935 21.1921 16.1731 21.6584 14.2852 21.6584C10.6328 21.6584 7.53596 19.2823 6.42481 16.0878H1.76929V19.5651C4.14592 24.1238 8.98663 27.0009 14.28 27.0009Z" fill="#34A853"/>
<path d="M6.41966 16.0879C5.83322 14.4113 5.83322 12.5957 6.41966 10.9191V7.44177H1.76928C-0.216388 11.2564 -0.216388 15.7506 1.76928 19.5652L6.41966 16.0879Z" fill="#FBBC04"/>
<path d="M14.28 5.34337C16.276 5.3136 18.2051 6.03784 19.6506 7.36725L23.6477 3.51294C21.1167 1.22119 17.7575 -0.0387742 14.28 0.000909749C8.98663 0.000909749 4.14592 2.878 1.76929 7.44166L6.41966 10.919C7.52567 7.71945 10.6276 5.34337 14.28 5.34337Z" fill="#EA4335"/>
</g>
<defs>
<clipPath id="clip0_2310_1304">
<rect width="28" height="27" fill="white"/>
</clipPath>
</defs>
</svg>
